<?xml version="1.0" standalone="no"?><!DOCTYPE svg PUBLIC "-//W3C//DTD SVG 1.1//EN" "http://www.w3.org/Graphics/SVG/1.1/DTD/svg11.dtd"><svg t="1686209565903" class="icon" viewBox="0 0 1024 1024" version="1.1" xmlns="http://www.w3.org/2000/svg" p-id="3031" xmlns:xlink="http://www.w3.org/1999/xlink" width="48" height="48"><path d="M512 64C264.8 64 64 264.8 64 512s200.8 448 448 448 448-200.8 448-448S759.2 64 512 64z m224 654.4c0 14.4-11.2 25.6-24.8 25.6-236 0-427.2-196-427.2-438.4 0-14.4 11.2-25.6 24.8-25.6h88c13.6 0 24.8 11.2 24.8 25.6 0 32 4.8 63.2 14.4 92.8 2.4 8.8 0.8 19.2-6.4 26.4l-55.2 56.8c36 72.8 94.4 132.8 165.6 169.6l55.2-56.8c6.4-7.2 16.8-9.6 25.6-6.4 28 9.6 58.4 14.4 89.6 14.4 13.6 0 24.8 12 24.8 25.6v90.4z" p-id="3032" ></path></svg>